<svg xmlns="http://www.w3.org/2000/svg" width="20.24" height="16.107" viewBox="0 0 20.24 16.107"><g transform="translate(0.001 -46.994)"><g transform="translate(-0.001 46.994)"><path d="M72.929,120.939l-7.218,5.951a.171.171,0,0,1-.006.038.172.172,0,0,0-.006.037v6.026a.815.815,0,0,0,.8.8h4.821v-4.821h3.214v4.821h4.821a.816.816,0,0,0,.8-.8v-6.026a.177.177,0,0,0-.013-.075Z" transform="translate(-62.809 -117.688)" fill="#d6d6d6"/><path d="M20.1,54.84,17.35,52.556V47.433a.387.387,0,0,0-.4-.4h-2.41a.386.386,0,0,0-.4.4v2.448L11.074,47.32a1.557,1.557,0,0,0-1.908,0L.139,54.84A.365.365,0,0,0,0,55.11a.407.407,0,0,0,.088.3l.778.929a.428.428,0,0,0,.264.138.467.467,0,0,0,.3-.088l8.687-7.244,8.687,7.244a.387.387,0,0,0,.264.088h.038a.429.429,0,0,0,.264-.138l.778-.929a.406.406,0,0,0,.088-.3A.366.366,0,0,0,20.1,54.84Z" transform="translate(0.001 -46.994)" fill="#d6d6d6"/></g></g></svg>