<svg xmlns="http://www.w3.org/2000/svg" width="41.141" height="41.14" viewBox="0 0 41.141 41.14"><path d="M20.57,0A20.57,20.57,0,1,0,41.14,20.57,20.572,20.572,0,0,0,20.57,0ZM14.593,31.1H9.583V16.024h5.01Zm-2.5-17.13h-.033a2.611,2.611,0,1,1,.066-5.208,2.612,2.612,0,1,1-.033,5.208ZM32.657,31.1H27.648V23.033c0-2.026-.725-3.408-2.538-3.408a2.742,2.742,0,0,0-2.57,1.832,3.431,3.431,0,0,0-.165,1.223V31.1H17.365s.066-13.658,0-15.072h5.009v2.134a4.974,4.974,0,0,1,4.515-2.488c3.3,0,5.767,2.154,5.767,6.783Zm0,0" fill="#82aafe"/></svg>