<svg xmlns="http://www.w3.org/2000/svg" width="90.61" height="57.003" viewBox="0 0 90.61 57.003"><path d="M96.3,4.9q-1.9,7.227-12.557,7.227h-8.4q-7.588,0-7.588-4.381a11.974,11.974,0,0,1,1.684-4.307S82.571-13.165,76.2-15.783,53.8,8.789,53.8,8.789c-2.794,3.855-5.044,4.02-7.9,4.02-1.4-.279-3.559-1.325-3.034-5.059S64.97-26.671,56.643-28.566,23.083,8.7,23.083,8.7q-2.8,3.433-8.221,3.433H5.693C30.867-13.88,32.46-16.144,32.46-16.144L43.409-28.26l.052-.058,7.49-8.289a31.8,31.8,0,0,1,5.691-5.511,15.791,15.791,0,0,1,8.537-2.078A5.816,5.816,0,0,1,68.3-43.155a5.4,5.4,0,0,1,2.484,4.833,12.206,12.206,0,0,1-.994,4.472s-10.92,21.444-8.763,22.765,17.39-17.48,17.39-17.48a40.426,40.426,0,0,1,4.923-4.472,12.12,12.12,0,0,1,6.1-1.174c2.287.082,8.074,2.417,5.149,10.615S76.744,2.542,83.789,4.9A18.785,18.785,0,0,0,96.3,4.9Z" transform="translate(-5.693 44.194)" fill="#fff"/></svg>