<svg xmlns="http://www.w3.org/2000/svg" width="16.124" height="14.648" viewBox="0 0 16.124 14.648"><g transform="translate(0 -17.951)"><g transform="translate(0 17.951)"><g transform="translate(0 0)"><path d="M15.155,17.951H.969A.97.97,0,0,0,0,18.92V31.63a.97.97,0,0,0,.969.969H15.155a.97.97,0,0,0,.969-.969V18.92A.97.97,0,0,0,15.155,17.951Zm-2.922,1.627a.358.358,0,0,1,.358-.358h.358a.358.358,0,0,1,.358.358v.406a.358.358,0,0,1-.358.358h-.358a.358.358,0,0,1-.358-.358Zm-1.664,0a.358.358,0,0,1,.358-.358h.358a.358.358,0,0,1,.358.358v.406a.358.358,0,0,1-.358.358h-.358a.358.358,0,0,1-.358-.358Zm4.391,11.858H1.163V21.416h13.8v10.02Zm.009-11.453a.358.358,0,0,1-.358.358h-.358a.358.358,0,0,1-.358-.358v-.406a.358.358,0,0,1,.358-.358h.358a.358.358,0,0,1,.358.358Z" transform="translate(0 -17.951)" fill="#d6d6d6"/><path d="M77.386,181.911l2.594,1.206a.5.5,0,0,0,.716-.457v-.013a.506.506,0,0,0-.292-.457l-1.622-.754,1.622-.754a.506.506,0,0,0,.292-.457v-.013a.5.5,0,0,0-.5-.5.507.507,0,0,0-.212.047l-2.593,1.206a.506.506,0,0,0-.292.457v.036A.506.506,0,0,0,77.386,181.911Z" transform="translate(-73.924 -173.058)" fill="#d6d6d6"/><path d="M163,150.88a.506.506,0,0,0,.407.207h.013a.5.5,0,0,0,.48-.35l1.708-5.294a.5.5,0,0,0-.48-.658h-.013a.5.5,0,0,0-.48.35l-1.709,5.294A.506.506,0,0,0,163,150.88Z" transform="translate(-156.203 -139.57)" fill="#d6d6d6"/><path d="M227.49,180.225a.507.507,0,0,0,.292.457l1.622.754-1.622.754a.506.506,0,0,0-.292.457v.013a.5.5,0,0,0,.717.457l2.593-1.206a.506.506,0,0,0,.292-.457v-.036a.506.506,0,0,0-.292-.457l-2.593-1.206a.5.5,0,0,0-.716.457v.013h0Z" transform="translate(-218.137 -173.058)" fill="#d6d6d6"/></g></g></g></svg>