<svg xmlns="http://www.w3.org/2000/svg" width="17.853" height="15.425" viewBox="0 0 17.853 15.425"><g transform="translate(0 -26.403)"><g transform="translate(0 26.403)"><g transform="translate(0 0)"><path d="M9.249,241.784a2.258,2.258,0,0,1-1.417-.528L5.214,238.95a1.153,1.153,0,0,0-1.489-.072L0,241.616v1.777a.865.865,0,0,0,.815.912c.025,0,.049,0,.074,0H14.077a1.011,1.011,0,0,0,1.057-.913v-4.66L10.4,241.472A2.186,2.186,0,0,1,9.249,241.784Z" transform="translate(0 -228.882)" fill="#d6d6d6"/><circle cx="1.057" cy="1.057" r="1.057" transform="translate(8 6.129)" fill="#d6d6d6"/><path d="M71.491,28.28a.889.889,0,0,0-.649-.36L57.752,26.407a.957.957,0,0,0-1.081.817L56.455,29.1H67.936a2.066,2.066,0,0,1,2.018,1.994V39.57c0-.048.216-.1.312-.192a.817.817,0,0,0,.312-.649l1.129-9.752A.937.937,0,0,0,71.491,28.28Z" transform="translate(-53.859 -26.403)" fill="#d6d6d6"/><path d="M14.106,105.9H.919a.97.97,0,0,0-.889,1.033v6.846L3.2,111.472a2.114,2.114,0,0,1,2.666.12L8.509,113.9a1.225,1.225,0,0,0,1.417.12l5.236-3.051v-4.035A1.1,1.1,0,0,0,14.106,105.9Zm-5.02,5.549A2.018,2.018,0,1,1,11.1,109.43,2.018,2.018,0,0,1,9.085,111.448Z" transform="translate(-0.029 -102.244)" fill="#d6d6d6"/></g></g></g></svg>