<svg xmlns="http://www.w3.org/2000/svg" width="12.015" height="15.797" viewBox="0 0 12.015 15.797"><g transform="translate(-41.896)"><path d="M107.715,7.726c1.756,0,3.18-1.729,3.18-3.863S110.428,0,107.715,0s-3.18,1.729-3.18,3.863S105.959,7.726,107.715,7.726Z" transform="translate(-59.813)" fill="#d6d6d6"/><path d="M41.9,300.439c0-.13,0-.037,0,0Z" transform="translate(0 -286.815)" fill="#d6d6d6"/><path d="M308.085,301.6c0-.036,0-.247,0,0Z" transform="translate(-254.175 -287.879)" fill="#d6d6d6"/><path d="M53.915,183.186c-.059-3.716-.544-4.775-4.259-5.446a2.609,2.609,0,0,1-3.483,0c-3.674.663-4.189,1.706-4.256,5.325-.006.3-.008.311-.009.277,0,.064,0,.183,0,.39,0,0,.884,1.783,6.007,1.783s6.007-1.783,6.007-1.783c0-.133,0-.226,0-.289A2.391,2.391,0,0,1,53.915,183.186Z" transform="translate(-0.012 -169.718)" fill="#d6d6d6"/></g></svg>