<svg xmlns="http://www.w3.org/2000/svg" width="15.986" height="15.981" viewBox="0 0 15.986 15.981"><g transform="translate(0 -0.019)"><g transform="translate(0 0.019)"><path d="M33.916,16.913l-1.434-.088c-.043.285-.077.558-.106.828l.107.014a6,6,0,0,0,1.43.069C33.922,17.455,33.924,17.179,33.916,16.913Z" transform="translate(-23.134 -12.027)" fill="#d6d6d6"/><path d="M32.174,21.726l-.083-.011a13.776,13.776,0,0,0-.036,1.441,3.823,3.823,0,0,1,1.265-.218c.071,0,.14.007.21.011.054-.4.1-.78.122-1.148-.125.01-.249.019-.367.019A8.132,8.132,0,0,1,32.174,21.726Z" transform="translate(-22.901 -15.521)" fill="#d6d6d6"/><path d="M15.326.021A.088.088,0,0,0,15.259.1L15.212,1.39a.971.971,0,0,0,.44.021.974.974,0,0,0,.385-.214L15.424.065A.089.089,0,0,0,15.326.021Z" transform="translate(-10.869 -0.019)" fill="#d6d6d6"/><path d="M17.012,14.42a.285.285,0,0,1,.343.213l.816,3.479a3.828,3.828,0,0,1,.428-.665L17.326,12a1.352,1.352,0,0,1-.5.379l.2.862a.285.285,0,1,1-.556.13l-.2-.862c-.018,0-.037,0-.055,0a1.353,1.353,0,0,1-.559-.122l1.253,5.346a3.233,3.233,0,0,1,.622.155l-.734-3.13A.285.285,0,0,1,17.012,14.42Z" transform="translate(-11.189 -8.58)" fill="#d6d6d6"/><path d="M33.651,3.521a3.818,3.818,0,0,0-1.03-2.046,4.307,4.307,0,0,1-1.242,2.084A1.191,1.191,0,0,0,31.4,5.278l1.673.1A2.558,2.558,0,0,0,33.651,3.521ZM32.639,4.965a.285.285,0,0,1-.228-.457,1.586,1.586,0,0,0,.284-1.19.285.285,0,1,1,.552-.147,2.141,2.141,0,0,1-.38,1.681A.285.285,0,0,1,32.639,4.965Z" transform="translate(-22.166 -1.059)" fill="#d6d6d6"/><path d="M48.992,13.5l-1.2.747a5.638,5.638,0,0,1-.381,1.552,1.174,1.174,0,0,0,1.595.66,5.646,5.646,0,0,1,.828-1.367l-.318-1.374L49.1,14.742a.286.286,0,0,1-.528-.219Z" transform="translate(-33.879 -9.652)" fill="#d6d6d6"/><path d="M45.732,26.822l.911-2.2a1.511,1.511,0,0,1-.173.011,1.812,1.812,0,0,1-.7-.147,1.739,1.739,0,0,1-.712-.518l-.554,1.338A3.874,3.874,0,0,1,45.732,26.822Z" transform="translate(-31.801 -17.132)" fill="#d6d6d6"/><path d="M14.274,32.567a1.782,1.782,0,0,0-.381.042.285.285,0,0,1-.334-.363,3.283,3.283,0,0,0-6.212-2.119.285.285,0,0,1-.438.128,2.712,2.712,0,0,0-4.34,2.114.285.285,0,0,1-.368.268,1.682,1.682,0,0,0-.488-.071,1.713,1.713,0,0,0,0,3.426H14.274a1.713,1.713,0,0,0,0-3.426ZM4.659,31.124A.981.981,0,0,0,4,32a.285.285,0,1,1-.571,0,1.549,1.549,0,0,1,1.052-1.413.286.286,0,1,1,.182.542Zm3.628-1.2a1.778,1.778,0,0,1,1.7-1.358.285.285,0,0,1,0,.571,1.218,1.218,0,0,0-1.152.926.285.285,0,0,1-.277.216.279.279,0,0,1-.07-.009A.285.285,0,0,1,8.287,29.928Zm2.965,3.849a.285.285,0,0,1-.378-.143.856.856,0,0,0-.776-.5.842.842,0,0,0-.53.186l-.03.015-.027.02-.023.005a.26.26,0,0,1-.163.01.284.284,0,0,1-.051-.016.277.277,0,0,1-.046-.029.272.272,0,0,1-.044-.037c-.006-.006-.013-.009-.018-.015a.29.29,0,0,1-.015-.029.31.31,0,0,1-.02-.027A1.13,1.13,0,0,0,8.1,32.567a1.142,1.142,0,0,0-1.142,1.142,1.163,1.163,0,0,0,.094.459.285.285,0,0,1-.151.375.282.282,0,0,1-.112.023.285.285,0,0,1-.263-.174,1.733,1.733,0,0,1-.14-.683,1.709,1.709,0,0,1,3.1-1,1.4,1.4,0,0,1,.612-.143,1.427,1.427,0,0,1,1.3.832.285.285,0,0,1-.141.378Z" transform="translate(0 -20.011)" fill="#d6d6d6"/><path d="M15.965,7.574a.947.947,0,0,0,.685-.766l-.482-.887a1.454,1.454,0,0,1-.529.263,1.272,1.272,0,0,1-.29.032,1.68,1.68,0,0,1-.3-.029l-.036,1.005A.948.948,0,0,0,15.965,7.574Z" transform="translate(-10.726 -4.236)" fill="#d6d6d6"/><path d="M1.59,20.965l1.056-.437L2.428,20l-2.376.983,2.069,4.989a3.314,3.314,0,0,1,1.849-2.25l-.231-.558L2.683,23.6a.289.289,0,0,1-.109.022.285.285,0,0,1-.11-.549l1.056-.437L3.3,22.11l-.528.219a.29.29,0,0,1-.109.022.285.285,0,0,1-.11-.549l.528-.219-.218-.528-1.056.438a.29.29,0,0,1-.109.022.285.285,0,0,1-.109-.549Z" transform="translate(-0.037 -14.296)" fill="#d6d6d6"/></g></g></svg>