<svg xmlns="http://www.w3.org/2000/svg" width="40.79" height="39.792" viewBox="0 0 40.79 39.792"><path d="M38.054,15.523A20.306,20.306,0,0,0,30.632,8.1,19.948,19.948,0,0,0,20.395,5.365,19.951,19.951,0,0,0,10.158,8.1a20.3,20.3,0,0,0-7.422,7.422A19.95,19.95,0,0,0,0,25.759a19.821,19.821,0,0,0,3.89,11.99,19.975,19.975,0,0,0,10.051,7.369A1.189,1.189,0,0,0,15,44.933a1.039,1.039,0,0,0,.345-.8q0-.08-.013-1.434t-.013-2.363l-.611.106a7.791,7.791,0,0,1-1.474.093,11.229,11.229,0,0,1-1.846-.186,4.124,4.124,0,0,1-1.779-.8,3.369,3.369,0,0,1-1.168-1.633l-.266-.611a6.636,6.636,0,0,0-.836-1.354,3.2,3.2,0,0,0-1.155-1.009L6,34.816a1.95,1.95,0,0,1-.345-.319,1.457,1.457,0,0,1-.239-.372q-.08-.186.133-.306a1.722,1.722,0,0,1,.77-.119l.531.079a3.876,3.876,0,0,1,1.315.637A4.286,4.286,0,0,1,9.454,35.8a4.681,4.681,0,0,0,1.474,1.66,3.127,3.127,0,0,0,1.739.571A7.552,7.552,0,0,0,14.18,37.9a5.282,5.282,0,0,0,1.195-.4,4.3,4.3,0,0,1,1.3-2.735,18.183,18.183,0,0,1-2.722-.478,10.838,10.838,0,0,1-2.5-1.036,7.149,7.149,0,0,1-2.138-1.779A8.55,8.55,0,0,1,7.927,28.68,13.26,13.26,0,0,1,7.382,24.7a7.746,7.746,0,0,1,2.1-5.471,7.139,7.139,0,0,1,.186-5.417,3.721,3.721,0,0,1,2.284.358,15.967,15.967,0,0,1,2.217,1.023q.7.424,1.129.717a19.179,19.179,0,0,1,10.2,0L26.5,15.27A14.292,14.292,0,0,1,28.946,14.1a3.48,3.48,0,0,1,2.152-.292,7.07,7.07,0,0,1,.212,5.417,7.747,7.747,0,0,1,2.1,5.471,13.408,13.408,0,0,1-.544,4,8.218,8.218,0,0,1-1.407,2.788,7.424,7.424,0,0,1-2.151,1.766,10.859,10.859,0,0,1-2.5,1.036,18.165,18.165,0,0,1-2.722.479,4.73,4.73,0,0,1,1.38,3.771v5.6a1.058,1.058,0,0,0,.332.8,1.153,1.153,0,0,0,1.049.186A19.972,19.972,0,0,0,36.9,37.748a19.825,19.825,0,0,0,3.89-11.99A19.966,19.966,0,0,0,38.054,15.523Z" transform="translate(0 -5.365)" fill="#82aafe"/></svg>